PathFileType  4	(X/Y/Z) C:\Users\MoBL3\Box\OA_GRF_OpenCap\GRF_Tracking_12_18_24\Subject3_walking1
DataRate	CameraRate	NumFrames	NumMarkers	Units	OrigDataRate	OrigDataStartFrame	OrigNumFrames
100.0		100.0		4		177		 mm	100.0	100	132
Frame#	Time	r_knee			r_shank_antsup			r_ankle			r_calc			r_5meta			r_toe			L_knee			L_shank_antsup			L_ankle			L_calc			L_5meta			L_toe			r_sh2			r_sh3			r_sh4			L_sh2			L_sh3			r_thigh1			r_thigh2			r_thigh3			r_thigh4			r_thigh5			L_thigh1			L_thigh2			L_thigh3			L_thigh4			r.ASIS			r.PSIS			L.ASIS			L.PSIS			C7			R_Shoulder			L_Shoulder			R_Sternum			L_Sternum			R_humerus			R_elbow_med			R_elbow_lat			R_forearm			R_wrist_radius			R_wrist_ulna			L_humerus			L_elbow_med			L_elbow_lat			L_forearm			L_wrist_radius			L_wrist_ulna			R_HJC			L_HJC			R_HJC_reg			L_HJC_reg			Neck			RShoulder			RElbow			RWrist			LShoulder			LElbow			LWrist			midHip			RHip			RKnee			RAnkle			LHip			LKnee			LAnkle			LBigToe			LSmallToe			LHeel			RBigToe			RSmallToe			RHeel			C7_study			r_shoulder_study			L_shoulder_study			r.ASIS_study			L.ASIS_study			r.PSIS_study			L.PSIS_study			r_knee_study			L_knee_study			r_mknee_study			L_mknee_study			r_ankle_study			L_ankle_study			r_mankle_study			L_mankle_study			r_calc_study			L_calc_study			r_toe_study			L_toe_study			r_5meta_study			L_5meta_study			r_thigh1_study			r_thigh2_study			r_thigh3_study			L_thigh1_study			L_thigh2_study			L_thigh3_study			r_sh1_study			r_sh2_study			r_sh3_study			L_sh1_study			L_sh2_study			L_sh3_study			RHJC_study			LHJC_study			r_lelbow_study			L_lelbow_study			r_melbow_study			L_melbow_study			r_lwrist_study			L_lwrist_study			r_mwrist_study			L_mwrist_study			Neck_offsetRemoved			RShoulder_offsetRemoved			RElbow_offsetRemoved			RWrist_offsetRemoved			LShoulder_offsetRemoved			LElbow_offsetRemoved			LWrist_offsetRemoved			midHip_offsetRemoved			RHip_offsetRemoved			RKnee_offsetRemoved			RAnkle_offsetRemoved			LHip_offsetRemoved			LKnee_offsetRemoved			LAnkle_offsetRemoved			LBigToe_offsetRemoved			LSmallToe_offsetRemoved			LHeel_offsetRemoved			RBigToe_offsetRemoved			RSmallToe_offsetRemoved			RHeel_offsetRemoved			C7_study_offsetRemoved			r_shoulder_study_offsetRemoved			L_shoulder_study_offsetRemoved			r.ASIS_study_offsetRemoved			L.ASIS_study_offsetRemoved			r.PSIS_study_offsetRemoved			L.PSIS_study_offsetRemoved			r_knee_study_offsetRemoved			L_knee_study_offsetRemoved			r_mknee_study_offsetRemoved			L_mknee_study_offsetRemoved			r_ankle_study_offsetRemoved			L_ankle_study_offsetRemoved			r_mankle_study_offsetRemoved			L_mankle_study_offsetRemoved			r_calc_study_offsetRemoved			L_calc_study_offsetRemoved			r_toe_study_offsetRemoved			L_toe_study_offsetRemoved			r_5meta_study_offsetRemoved			L_5meta_study_offsetRemoved			r_thigh1_study_offsetRemoved			r_thigh2_study_offsetRemoved			r_thigh3_study_offsetRemoved			L_thigh1_study_offsetRemoved			L_thigh2_study_offsetRemoved			L_thigh3_study_offsetRemoved			r_sh1_study_offsetRemoved			r_sh2_study_offsetRemoved			r_sh3_study_offsetRemoved			L_sh1_study_offsetRemoved			L_sh2_study_offsetRemoved			L_sh3_study_offsetRemoved			RHJC_study_offsetRemoved			LHJC_study_offsetRemoved			r_lelbow_study_offsetRemoved			L_lelbow_study_offsetRemoved			r_melbow_study_offsetRemoved			L_melbow_study_offsetRemoved			r_lwrist_study_offsetRemoved			L_lwrist_study_offsetRemoved			r_mwrist_study_offsetRemoved			L_mwrist_study_offsetRemoved			
		X1	Y1	Z1	X2	Y2	Z2	X3	Y3	Z3	X4	Y4	Z4	X5	Y5	Z5	X6	Y6	Z6	X7	Y7	Z7	X8	Y8	Z8	X9	Y9	Z9	X10	Y10	Z10	X11	Y11	Z11	X12	Y12	Z12	X13	Y13	Z13	X14	Y14	Z14	X15	Y15	Z15	X16	Y16	Z16	X17	Y17	Z17	X18	Y18	Z18	X19	Y19	Z19	X20	Y20	Z20	X21	Y21	Z21	X22	Y22	Z22	X23	Y23	Z23	X24	Y24	Z24	X25	Y25	Z25	X26	Y26	Z26	X27	Y27	Z27	X28	Y28	Z28	X29	Y29	Z29	X30	Y30	Z30	X31	Y31	Z31	X32	Y32	Z32	X33	Y33	Z33	X34	Y34	Z34	X35	Y35	Z35	X36	Y36	Z36	X37	Y37	Z37	X38	Y38	Z38	X39	Y39	Z39	X40	Y40	Z40	X41	Y41	Z41	X42	Y42	Z42	X43	Y43	Z43	X44	Y44	Z44	X45	Y45	Z45	X46	Y46	Z46	X47	Y47	Z47	X48	Y48	Z48	X49	Y49	Z49	X50	Y50	Z50	X51	Y51	Z51	X52	Y52	Z52	X53	Y53	Z53	X54	Y54	Z54	X55	Y55	Z55	X56	Y56	Z56	X57	Y57	Z57	X58	Y58	Z58	X59	Y59	Z59	X60	Y60	Z60	X61	Y61	Z61	X62	Y62	Z62	X63	Y63	Z63	X64	Y64	Z64	X65	Y65	Z65	X66	Y66	Z66	X67	Y67	Z67	X68	Y68	Z68	X69	Y69	Z69	X70	Y70	Z70	X71	Y71	Z71	X72	Y72	Z72	X73	Y73	Z73	X74	Y74	Z74	X75	Y75	Z75	X76	Y76	Z76	X77	Y77	Z77	X78	Y78	Z78	X79	Y79	Z79	X80	Y80	Z80	X81	Y81	Z81	X82	Y82	Z82	X83	Y83	Z83	X84	Y84	Z84	X85	Y85	Z85	X86	Y86	Z86	X87	Y87	Z87	X88	Y88	Z88	X89	Y89	Z89	X90	Y90	Z90	X91	Y91	Z91	X92	Y92	Z92	X93	Y93	Z93	X94	Y94	Z94	X95	Y95	Z95	X96	Y96	Z96	X97	Y97	Z97	X98	Y98	Z98	X99	Y99	Z99	X100	Y100	Z100	X101	Y101	Z101	X102	Y102	Z102	X103	Y103	Z103	X104	Y104	Z104	X105	Y105	Z105	X106	Y106	Z106	X107	Y107	Z107	X108	Y108	Z108	X109	Y109	Z109	X110	Y110	Z110	X111	Y111	Z111	X112	Y112	Z112	X113	Y113	Z113	X114	Y114	Z114	X115	Y115	Z115	X116	Y116	Z116	X117	Y117	Z117	X118	Y118	Z118	X119	Y119	Z119	X120	Y120	Z120	X121	Y121	Z121	X122	Y122	Z122	X123	Y123	Z123	X124	Y124	Z124	X125	Y125	Z125	X126	Y126	Z126	X127	Y127	Z127	X128	Y128	Z128	X129	Y129	Z129	X130	Y130	Z130	X131	Y131	Z131	X132	Y132	Z132	X133	Y133	Z133	X134	Y134	Z134	X135	Y135	Z135	X136	Y136	Z136	X137	Y137	Z137	X138	Y138	Z138	X139	Y139	Z139	X140	Y140	Z140	X141	Y141	Z141	X142	Y142	Z142	X143	Y143	Z143	X144	Y144	Z144	X145	Y145	Z145	X146	Y146	Z146	X147	Y147	Z147	X148	Y148	Z148	X149	Y149	Z149	X150	Y150	Z150	X151	Y151	Z151	X152	Y152	Z152	X153	Y153	Z153	X154	Y154	Z154	X155	Y155	Z155	X156	Y156	Z156	X157	Y157	Z157	X158	Y158	Z158	X159	Y159	Z159	X160	Y160	Z160	X161	Y161	Z161	X162	Y162	Z162	X163	Y163	Z163	X164	Y164	Z164	X165	Y165	Z165	X166	Y166	Z166	X167	Y167	Z167	X168	Y168	Z168	X169	Y169	Z169	X170	Y170	Z170	X171	Y171	Z171	X172	Y172	Z172	X173	Y173	Z173	X174	Y174	Z174	X175	Y175	Z175	X176	Y176	Z176	X177	Y177	Z177	

100	0.99000	1235.360	517.066	-75.051	1284.922	410.077	-88.108	1238.416	134.182	-102.113	1197.825	84.652	-154.315	1354.803	102.368	-67.640	1389.175	129.445	-109.203	996.701	490.362	-365.731	1005.709	386.568	-303.516	871.408	117.619	-322.042	812.377	82.514	-278.047	983.815	63.869	-329.192	1018.955	80.345	-271.950	1283.623	298.886	-100.565	1227.654	404.074	-38.823	1209.814	294.192	-59.511	979.858	404.601	-385.466	949.119	288.025	-386.603	1164.929	821.477	-77.084	1225.160	729.487	-78.249	1199.135	684.052	-32.547	1079.732	765.890	-28.404	1143.262	669.638	-27.537	1111.851	771.502	-381.896	1098.307	634.437	-367.668	1011.969	781.950	-431.159	996.153	641.558	-408.881	1136.632	947.507	-103.205	955.875	991.924	-169.828	1146.265	949.500	-343.942	956.247	1001.703	-286.940	978.773	1448.395	-220.846	1017.740	1410.839	-65.543	1057.100	1429.870	-370.041	1104.819	1398.290	-187.940	1110.270	1396.258	-232.849	1000.516	1282.540	-1.349	902.133	1108.904	-83.408	908.857	1110.093	-6.795	914.125	985.549	18.068	907.182	880.977	21.497	870.994	888.667	30.537	1104.866	1294.714	-442.159	1086.859	1087.882	-411.337	1098.320	1106.861	-480.595	1187.330	1058.417	-501.858	1287.886	977.538	-492.734	1268.985	955.791	-509.448	1045.945	877.292	-130.065	1055.422	878.268	-319.203	1069.115	871.892	-143.087	1069.619	885.124	-301.555	1039.752	1330.080	-211.592	1025.515	1322.815	-55.988	931.021	1070.700	-25.929	864.822	839.926	-3.467	1063.764	1338.086	-366.274	1107.073	1098.626	-432.860	1265.950	928.144	-462.341	1061.406	882.000	-216.122	1061.015	883.597	-106.431	1232.806	507.179	-128.921	1248.332	95.389	-129.487	1068.315	881.163	-324.966	967.086	455.607	-298.684	878.285	91.507	-282.221	1017.305	34.786	-274.103	1007.942	38.284	-274.923	845.684	60.090	-277.939	1393.482	79.559	-91.169	1388.593	79.318	-92.905	1221.340	52.062	-136.776	966.825	1376.104	-212.866	1033.759	1365.389	-76.326	1059.975	1361.671	-339.959	1115.466	945.224	-62.930	1108.863	954.508	-364.709	954.803	974.548	-152.352	949.816	975.865	-269.062	1217.065	503.256	-72.938	983.130	469.876	-343.883	1225.561	511.119	-184.597	989.318	477.993	-235.709	1233.589	90.871	-82.268	864.773	77.914	-311.528	1255.599	96.615	-163.032	888.726	85.065	-234.080	1184.505	52.475	-137.477	800.296	50.202	-261.927	1363.235	70.939	-106.054	993.667	26.232	-274.696	1321.886	66.599	-62.433	951.418	23.575	-323.715	1176.308	777.115	-48.557	1191.251	669.186	-40.377	1071.828	737.757	-25.769	1097.239	717.366	-374.704	1049.575	615.825	-383.835	986.115	739.650	-401.080	1224.856	380.265	-70.410	1260.091	258.936	-59.329	1194.087	262.501	-59.315	949.847	349.357	-339.893	942.696	228.050	-342.434	881.596	251.561	-342.838	1030.704	880.974	-123.204	1028.004	887.280	-305.562	939.793	1097.165	11.850	1105.587	1098.513	-475.824	932.659	1085.260	-64.884	1091.305	1073.560	-401.167	925.258	850.409	2.603	1280.220	950.760	-463.138	860.241	863.383	14.297	1230.546	912.019	-487.822	1043.635	1343.161	-215.183	1029.397	1335.895	-59.579	934.903	1083.781	-29.520	868.704	853.007	-7.058	1067.646	1351.166	-369.865	1110.955	1111.707	-436.451	1269.832	941.225	-465.932	1065.289	895.081	-219.713	1064.897	896.678	-110.022	1236.688	520.260	-132.512	1252.214	108.470	-133.078	1072.197	894.244	-328.557	970.968	468.688	-302.275	882.167	104.588	-285.812	1021.187	47.866	-277.694	1011.824	51.365	-278.514	849.566	73.170	-281.530	1397.364	92.640	-94.760	1392.475	92.399	-96.496	1225.222	65.143	-140.367	970.707	1389.185	-216.458	1037.642	1378.470	-79.917	1063.857	1374.752	-343.550	1119.348	958.305	-66.521	1112.745	967.589	-368.300	958.685	987.628	-155.943	953.699	988.946	-272.653	1220.947	516.336	-76.529	987.012	482.957	-347.474	1229.443	524.200	-188.188	993.200	491.074	-239.300	1237.471	103.952	-85.859	868.655	90.995	-315.119	1259.481	109.695	-166.623	892.608	98.145	-237.671	1188.387	65.556	-141.068	804.178	63.282	-265.518	1367.117	84.020	-109.645	997.549	39.312	-278.287	1325.768	79.680	-66.024	955.300	36.656	-327.307	1180.190	790.195	-52.148	1195.133	682.267	-43.968	1075.710	750.837	-29.360	1101.121	730.447	-378.295	1053.457	628.906	-387.426	989.997	752.730	-404.671	1228.738	393.345	-74.001	1263.973	272.017	-62.921	1197.969	275.582	-62.907	953.729	362.438	-343.484	946.578	241.131	-346.025	885.478	264.642	-346.429	1034.586	894.055	-126.795	1031.886	900.361	-309.153	943.676	1110.246	8.259	1109.470	1111.594	-479.415	936.541	1098.341	-68.475	1095.187	1086.641	-404.759	929.140	863.490	-0.988	1284.102	963.841	-466.730	864.123	876.464	10.706	1234.428	925.099	-491.413
101	1.00000	1246.000	512.024	-72.539	1302.014	409.378	-86.094	1273.823	129.915	-100.572	1235.308	78.784	-151.886	1392.651	105.405	-68.051	1424.659	134.828	-109.968	1001.856	487.402	-365.573	1010.040	383.018	-303.571	872.075	115.789	-321.902	812.699	81.054	-277.870	983.825	61.333	-329.215	1018.762	77.281	-272.081	1307.265	298.063	-98.635	1245.160	399.675	-36.487	1233.953	288.901	-57.424	983.703	401.654	-385.293	951.306	285.551	-386.625	1177.056	816.472	-76.477	1236.429	723.809	-77.487	1209.994	679.139	-31.164	1091.579	762.155	-26.913	1154.339	665.081	-25.844	1120.946	767.292	-381.644	1105.639	630.313	-367.583	1020.839	779.033	-430.424	1003.334	638.824	-408.326	1149.277	943.927	-102.600	967.918	987.906	-168.240	1157.308	945.265	-343.388	967.547	997.636	-285.328	990.601	1444.339	-219.554	1029.375	1406.500	-64.339	1069.547	1425.988	-368.562	1116.709	1393.941	-186.583	1122.179	1391.987	-231.510	1011.464	1278.297	-0.267	913.591	1104.717	-83.132	919.330	1106.220	-6.374	922.832	981.973	19.156	914.378	877.534	23.079	878.222	885.795	31.705	1118.126	1291.334	-440.711	1101.715	1084.328	-410.501	1113.247	1103.546	-479.769	1203.313	1056.741	-500.297	1305.396	977.991	-490.467	1287.425	955.641	-507.282	1058.392	873.542	-128.736	1066.665	874.078	-317.931	1081.616	867.852	-142.041	1081.117	881.020	-300.505	1051.582	1325.608	-210.107	1036.629	1318.138	-54.685	941.879	1064.362	-23.148	871.953	835.851	-1.257	1076.239	1333.769	-364.574	1121.728	1094.707	-431.117	1283.750	927.312	-459.736	1074.454	878.897	-214.919	1074.686	880.511	-105.386	1241.519	502.561	-126.497	1282.244	94.179	-128.718	1080.697	878.068	-323.655	974.000	452.620	-298.617	878.884	89.663	-282.463	1020.303	33.334	-274.575	1011.765	36.649	-275.382	845.411	58.241	-278.298	1430.724	86.313	-91.690	1425.566	85.808	-93.244	1258.534	49.743	-135.618	979.973	1373.802	-211.882	1047.076	1362.847	-75.179	1072.983	1358.812	-339.269	1129.175	941.862	-61.220	1121.643	951.695	-364.162	967.949	971.283	-150.790	962.699	972.843	-267.679	1231.798	501.183	-71.623	989.027	468.148	-343.106	1240.175	508.997	-182.980	995.983	476.249	-235.024	1270.212	91.350	-79.441	866.600	78.190	-311.173	1291.982	97.786	-160.012	890.719	85.628	-233.869	1222.971	49.668	-134.220	801.831	50.796	-261.396	1401.182	78.714	-103.419	995.129	27.260	-274.846	1360.005	71.664	-59.723	952.653	24.475	-323.642	1189.858	774.689	-47.092	1205.275	666.987	-38.962	1085.463	734.939	-24.584	1107.193	713.777	-374.000	1058.122	613.178	-383.099	996.491	737.565	-399.675	1245.833	379.208	-68.651	1287.246	260.540	-56.982	1221.146	260.007	-57.357	954.431	348.311	-339.253	946.118	227.377	-342.179	884.882	251.605	-342.135	1043.909	877.549	-121.592	1040.722	884.233	-304.846	950.086	1095.221	12.512	1121.306	1096.777	-474.980	942.429	1083.680	-63.730	1107.143	1071.732	-400.343	929.057	847.412	2.498	1300.140	953.517	-461.019	864.456	861.995	14.041	1251.378	913.578	-485.802	1055.464	1338.689	-213.698	1040.511	1331.219	-58.277	945.761	1077.443	-26.739	875.835	848.932	-4.848	1080.121	1346.850	-368.165	1125.610	1107.788	-434.708	1287.632	940.393	-463.327	1078.336	891.978	-218.510	1078.568	893.592	-108.977	1245.401	515.641	-130.088	1286.126	107.260	-132.309	1084.579	891.149	-327.247	977.882	465.701	-302.208	882.766	102.744	-286.054	1024.185	46.415	-278.166	1015.647	49.730	-278.973	849.293	71.322	-281.889	1434.606	99.394	-95.282	1429.448	98.888	-96.835	1262.416	62.824	-139.210	983.855	1386.883	-215.473	1050.958	1375.928	-78.770	1076.865	1371.892	-342.860	1133.057	954.943	-64.811	1125.525	964.776	-367.753	971.831	984.364	-154.381	966.581	985.924	-271.270	1235.680	514.264	-75.214	992.909	481.228	-346.698	1244.057	522.078	-186.571	999.866	489.330	-238.615	1274.094	104.430	-83.032	870.482	91.271	-314.764	1295.864	110.867	-163.603	894.601	98.709	-237.460	1226.853	62.749	-137.811	805.713	63.877	-264.987	1405.064	91.795	-107.010	999.011	40.340	-278.437	1363.888	84.745	-63.314	956.535	37.556	-327.233	1193.741	787.770	-50.683	1209.157	680.068	-42.553	1089.345	748.020	-28.175	1111.075	726.858	-377.591	1062.004	626.259	-386.690	1000.373	750.645	-403.266	1249.715	392.288	-72.242	1291.129	273.620	-60.573	1225.028	273.088	-60.948	958.313	361.391	-342.844	950.000	240.457	-345.770	888.764	264.686	-345.726	1047.792	890.630	-125.183	1044.604	897.314	-308.437	953.968	1108.302	8.921	1125.188	1109.857	-478.571	946.311	1096.761	-67.321	1111.025	1084.812	-403.934	932.939	860.492	-1.093	1304.022	966.597	-464.610	868.338	875.076	10.450	1255.260	926.659	-489.393
102	1.01000	1256.204	506.438	-69.882	1318.309	408.404	-84.141	1307.069	126.707	-99.222	1270.678	74.101	-149.585	1428.125	108.913	-68.756	1457.722	140.484	-110.965	1007.328	484.255	-365.384	1014.599	379.252	-303.616	872.785	113.909	-321.850	813.045	79.591	-277.755	983.879	58.624	-329.257	1018.469	73.961	-272.200	1329.552	297.306	-96.804	1262.020	395.191	-34.168	1256.998	283.984	-55.342	987.834	398.559	-385.097	953.707	282.956	-386.658	1189.238	810.817	-75.502	1247.562	717.318	-76.278	1220.385	673.476	-29.419	1103.179	757.968	-25.550	1164.868	659.939	-23.995	1130.155	762.863	-381.414	1113.216	626.011	-367.514	1029.765	775.919	-429.519	1010.738	635.863	-407.753	1162.073	940.077	-102.011	980.122	983.524	-166.600	1168.467	940.821	-342.850	978.972	993.191	-283.655	1002.442	1439.979	-218.150	1041.189	1401.864	-63.066	1081.931	1421.782	-367.056	1128.618	1389.263	-185.244	1134.086	1387.399	-230.180	1022.691	1273.712	0.884	925.309	1100.176	-82.733	930.040	1102.010	-5.844	931.938	978.083	20.339	922.134	873.778	24.734	885.989	882.576	32.899	1131.384	1287.611	-439.155	1116.310	1080.452	-409.601	1127.968	1099.890	-478.875	1218.995	1054.646	-498.637	1322.420	977.873	-488.083	1305.288	955.010	-504.999	1071.065	869.468	-127.410	1078.087	869.604	-316.655	1094.317	863.544	-140.983	1092.762	876.632	-299.445	1063.577	1320.956	-208.438	1047.892	1313.230	-53.177	953.066	1057.769	-20.346	880.542	831.771	1.708	1088.895	1329.322	-362.710	1136.063	1090.616	-429.333	1300.971	926.095	-456.966	1087.809	875.930	-213.690	1088.590	877.505	-104.374	1249.920	497.327	-124.064	1313.787	92.762	-128.039	1093.425	875.121	-322.288	981.046	449.521	-298.286	879.520	87.615	-282.603	1023.579	31.522	-275.002	1015.818	34.675	-275.829	845.027	56.044	-278.530	1465.932	92.668	-92.311	1460.570	91.835	-93.650	1293.111	47.632	-134.673	993.179	1371.549	-210.917	1060.423	1360.295	-74.029	1086.048	1356.123	-338.514	1143.133	938.679	-59.504	1134.747	948.935	-363.554	981.359	968.188	-149.257	975.920	969.924	-266.357	1246.238	498.979	-70.381	995.516	466.573	-342.349	1254.470	506.686	-181.481	1003.114	474.704	-234.378	1304.615	92.349	-77.023	868.698	78.660	-311.001	1326.072	99.418	-157.466	892.878	86.339	-233.691	1259.017	47.757	-131.368	803.457	51.696	-261.037	1436.509	86.403	-101.312	996.765	28.305	-274.961	1395.662	76.832	-57.505	954.127	25.408	-323.631	1203.545	772.190	-45.772	1219.284	664.739	-37.668	1099.179	732.322	-23.399	1117.597	710.316	-373.143	1067.185	610.714	-382.277	1007.424	735.572	-398.302	1265.932	378.076	-67.003	1312.884	262.165	-54.922	1246.804	257.847	-55.593	959.530	347.401	-338.739	949.875	226.801	-341.987	888.599	251.794	-341.622	1057.345	874.323	-120.006	1053.776	881.275	-304.069	960.913	1093.011	13.398	1136.649	1094.861	-474.035	952.619	1081.862	-62.383	1122.658	1069.815	-399.341	933.820	844.221	2.614	1319.304	955.704	-458.916	869.600	860.317	13.942	1271.334	914.617	-483.612	1067.459	1334.037	-212.029	1051.774	1326.311	-56.768	956.948	1070.850	-23.937	884.424	844.851	-1.883	1092.777	1342.403	-366.302	1139.945	1103.697	-432.924	1304.853	939.176	-460.557	1091.691	889.011	-217.281	1092.472	890.586	-107.965	1253.802	510.408	-127.655	1317.669	105.842	-131.630	1097.307	888.201	-325.879	984.928	462.602	-301.877	883.402	100.695	-286.194	1027.461	44.603	-278.593	1019.700	47.756	-279.420	848.909	69.125	-282.121	1469.814	105.749	-95.902	1464.452	104.916	-97.241	1296.993	60.713	-138.264	997.061	1384.630	-214.508	1064.305	1373.375	-77.621	1089.930	1369.203	-342.105	1147.015	951.760	-63.095	1138.629	962.016	-367.145	985.241	981.269	-152.848	979.802	983.005	-269.948	1250.120	512.059	-73.972	999.398	479.654	-345.940	1258.352	519.766	-185.072	1006.996	487.785	-237.969	1308.497	105.430	-80.614	872.580	91.741	-314.592	1329.955	112.499	-161.057	896.760	99.420	-237.282	1262.899	60.838	-134.959	807.339	64.777	-264.628	1440.391	99.483	-104.903	1000.647	41.386	-278.553	1399.544	89.913	-61.096	958.009	38.489	-327.222	1207.427	785.271	-49.363	1223.166	677.820	-41.259	1103.061	745.403	-26.990	1121.479	723.396	-376.734	1071.067	623.795	-385.868	1011.306	748.652	-401.893	1269.814	391.156	-70.594	1316.766	275.246	-58.513	1250.686	270.927	-59.184	963.412	360.482	-342.330	953.757	239.882	-345.578	892.481	264.875	-345.213	1061.227	887.403	-123.597	1057.658	894.356	-307.660	964.795	1106.092	9.807	1140.531	1107.942	-477.626	956.501	1094.943	-65.974	1126.541	1082.895	-402.932	937.702	857.302	-0.977	1323.186	968.785	-462.507	873.482	873.398	10.351	1275.216	927.698	-487.203
103	1.02000	1266.121	500.690	-67.130	1333.707	407.210	-82.197	1337.760	124.434	-98.144	1303.590	70.429	-147.644	1460.825	112.634	-69.639	1488.089	146.197	-112.015	1013.189	481.098	-365.100	1019.416	375.463	-303.595	873.546	112.209	-321.848	813.426	78.344	-277.682	983.977	55.935	-329.308	1018.138	70.626	-272.268	1350.359	296.628	-95.086	1278.066	390.746	-31.913	1278.699	279.491	-53.373	992.310	395.508	-384.821	956.374	280.451	-386.645	1201.510	804.933	-74.194	1258.669	710.497	-74.674	1230.532	667.490	-27.371	1114.667	753.663	-24.217	1175.021	654.631	-21.960	1139.518	758.397	-381.159	1121.104	621.718	-367.412	1038.776	772.753	-428.381	1018.426	632.837	-407.122	1175.003	936.148	-101.441	992.478	978.980	-164.898	1179.756	936.371	-342.350	990.535	988.563	-281.909	1014.316	1435.523	-216.642	1053.182	1397.134	-61.715	1094.220	1417.467	-365.534	1140.549	1384.485	-183.917	1145.992	1382.714	-228.854	1034.200	1268.982	2.112	937.269	1095.491	-82.190	940.995	1097.665	-5.193	941.464	974.066	21.614	930.463	869.887	26.453	894.317	879.164	34.125	1144.608	1283.747	-437.503	1130.621	1076.454	-408.655	1142.480	1096.099	-477.905	1234.361	1052.321	-496.893	1338.964	977.367	-485.585	1322.550	954.096	-502.607	1083.963	865.264	-126.094	1089.691	865.050	-315.382	1107.196	859.175	-139.930	1104.565	872.155	-298.406	1075.649	1316.284	-206.644	1059.334	1308.264	-51.464	964.560	1051.344	-17.729	890.288	827.881	5.104	1101.541	1324.909	-360.808	1150.037	1086.556	-427.565	1317.626	924.674	-454.081	1101.235	873.028	-212.446	1102.505	874.569	-103.339	1258.282	491.829	-121.698	1342.737	91.187	-127.454	1106.273	872.206	-320.927	988.103	446.450	-297.647	880.229	85.579	-282.607	1026.659	29.530	-275.279	1019.489	32.563	-276.124	844.672	53.733	-278.617	1498.405	98.277	-92.984	1492.908	97.076	-94.113	1324.770	45.772	-133.958	1006.226	1369.231	-209.962	1073.570	1357.653	-72.864	1098.974	1353.509	-337.694	1157.086	935.626	-57.822	1147.924	946.141	-362.868	994.807	965.183	-147.768	989.248	967.022	-265.110	1260.201	496.605	-69.251	1002.427	465.045	-341.615	1268.280	504.171	-180.141	1010.525	473.225	-233.771	1336.173	93.492	-75.097	870.866	79.232	-311.015	1357.269	101.123	-155.474	895.006	87.054	-233.562	1291.947	46.396	-129.022	804.988	52.787	-260.862	1468.672	93.443	-99.796	998.388	29.223	-275.053	1428.266	81.585	-55.846	955.645	26.229	-323.679	1217.156	769.568	-44.621	1233.060	662.374	-36.520	1112.775	729.827	-22.234	1128.235	706.894	-372.158	1076.552	608.325	-381.381	1018.674	733.593	-396.985	1284.846	376.744	-65.520	1336.612	263.536	-53.218	1270.622	255.839	-54.084	964.961	346.517	-338.365	953.778	226.221	-341.858	892.570	252.031	-341.303	1070.791	871.257	-118.471	1066.934	878.327	-303.223	972.090	1090.465	14.487	1151.406	1092.685	-473.006	963.061	1079.714	-60.861	1137.631	1067.735	-398.176	939.470	840.773	2.966	1337.510	957.239	-456.830	875.605	858.261	13.998	1290.210	915.036	-481.260	1079.531	1329.365	-210.235	1063.216	1321.344	-55.055	968.442	1064.425	-21.320	894.170	840.961	1.513	1105.423	1337.990	-364.399	1153.919	1099.637	-431.156	1321.508	937.755	-457.672	1105.117	886.109	-216.037	1106.387	887.650	-106.930	1262.164	504.909	-125.289	1346.619	104.267	-131.045	1110.155	885.287	-324.518	991.986	459.530	-301.238	884.112	98.659	-286.198	1030.541	42.611	-278.870	1023.371	45.644	-279.715	848.554	66.813	-282.208	1502.287	111.358	-96.575	1496.790	110.157	-97.704	1328.652	58.853	-137.549	1010.108	1382.312	-213.553	1077.452	1370.733	-76.455	1102.856	1366.590	-341.285	1160.968	948.706	-61.413	1151.807	959.222	-366.459	998.689	978.263	-151.359	993.130	980.102	-268.701	1264.083	509.686	-72.842	1006.309	478.126	-345.206	1272.162	517.252	-183.732	1014.407	486.306	-237.362	1340.055	106.572	-78.688	874.748	92.313	-314.606	1361.151	114.204	-159.065	898.889	100.135	-237.153	1295.829	59.477	-132.613	808.870	65.868	-264.453	1472.554	106.524	-103.387	1002.271	42.303	-278.644	1432.148	94.665	-59.437	959.527	39.309	-327.270	1221.038	782.648	-48.213	1236.943	675.454	-40.111	1116.657	742.908	-25.825	1132.117	719.975	-375.749	1080.434	621.406	-384.972	1022.556	746.674	-400.576	1288.728	389.825	-69.111	1340.494	276.617	-56.809	1274.504	268.920	-57.675	968.843	359.597	-341.956	957.660	239.302	-345.450	896.453	265.112	-344.894	1074.673	884.338	-122.062	1070.816	891.408	-306.814	975.972	1103.546	10.896	1155.288	1105.766	-476.597	966.943	1092.795	-64.452	1141.513	1080.816	-401.767	943.352	853.854	-0.625	1341.392	970.320	-460.421	879.488	871.342	10.407	1294.093	928.117	-484.851
